HIERARCHY
ROOT joint_0
{
	OFFSET 0.000000 0.000000 0.000000
	CHANNELS 6 Xposition Yposition Zposition Zrotation Yrotation Xrotation 
	JOINT joint_1
	{
		OFFSET -0.613770 -1.125488 108.300049
		CHANNELS 3 Zrotation Yrotation Xrotation
		JOINT joint_2
		{
			OFFSET -10.925537 -0.900513 98.259033
			CHANNELS 3 Zrotation Yrotation Xrotation
			JOINT joint_3
			{
				OFFSET -11.287842 0.313599 98.110962
				CHANNELS 3 Zrotation Yrotation Xrotation
				JOINT joint_4
				{
					OFFSET -2.124268 2.484680 136.491943
					CHANNELS 3 Zrotation Yrotation Xrotation
					JOINT joint_5
					{
						OFFSET 16.640869 1.801270 81.862061
						CHANNELS 3 Zrotation Yrotation Xrotation
						End Site
						{
							OFFSET 0.000000 0.000000 0.000000
						}
					}
				}
				JOINT joint_6
				{
					OFFSET 0.447998 -28.248108 77.258057
					CHANNELS 3 Zrotation Yrotation Xrotation
					JOINT joint_7
					{
						OFFSET 7.918701 -130.256348 -24.086060
						CHANNELS 3 Zrotation Yrotation Xrotation
						JOINT joint_8
						{
							OFFSET 62.431885 -29.384277 -258.572021
							CHANNELS 3 Zrotation Yrotation Xrotation
							JOINT joint_9
							{
								OFFSET 53.743164 -21.907532 -238.024963
								CHANNELS 3 Zrotation Yrotation Xrotation
								End Site
								{
									OFFSET 0.000000 0.000000 0.000000
								}
							}
						}
					}
				}
				JOINT joint_10
				{
					OFFSET -2.846924 31.052063 76.130981
					CHANNELS 3 Zrotation Yrotation Xrotation
					JOINT joint_11
					{
						OFFSET 9.073730 131.055603 -18.752930
						CHANNELS 3 Zrotation Yrotation Xrotation
						JOINT joint_12
						{
							OFFSET 52.981201 29.883301 -260.613037
							CHANNELS 3 Zrotation Yrotation Xrotation
							JOINT joint_13
							{
								OFFSET 62.237793 15.935547 -236.423035
								CHANNELS 3 Zrotation Yrotation Xrotation
								End Site
								{
									OFFSET 0.000000 0.000000 0.000000
								}
							}
						}
					}
				}
			}
		}
	}
	JOINT joint_14
	{
		OFFSET 22.046143 -72.816772 -98.122925
		CHANNELS 3 Zrotation Yrotation Xrotation
		JOINT joint_15
		{
			OFFSET -23.673828 -54.692932 -469.927032
			CHANNELS 3 Zrotation Yrotation Xrotation
			JOINT joint_16
			{
				OFFSET -34.875244 -46.505249 -395.890999
				CHANNELS 3 Zrotation Yrotation Xrotation
				JOINT joint_17
				{
					OFFSET 168.486328 14.224182 -74.182999
					CHANNELS 3 Zrotation Yrotation Xrotation
					End Site
					{
						OFFSET 0.000000 0.000000 0.000000
					}
				}
			}
		}
	}
	JOINT joint_18
	{
		OFFSET -1.731934 82.408569 -92.846924
		CHANNELS 3 Zrotation Yrotation Xrotation
		JOINT joint_19
		{
			OFFSET -6.908936 32.203369 -472.535034
			CHANNELS 3 Zrotation Yrotation Xrotation
			JOINT joint_20
			{
				OFFSET -13.963135 23.196533 -399.207993
				CHANNELS 3 Zrotation Yrotation Xrotation
				JOINT joint_21
				{
					OFFSET 168.417725 19.834229 -73.041004
					CHANNELS 3 Zrotation Yrotation Xrotation
					End Site
					{
						OFFSET 0.000000 0.000000 0.000000
					}
				}
			}
		}
	}
}
MOTION
Frames: 15
Frame Time: 0.016667
-2581.644531 898.937195 1060.208984 3.791553 1.045826 -1.460318 0.674294 0.254989 1.721604 0.450780 -0.092677 -0.379975 0.520556 0.084136 0.218709 0.000453 0.798170 -0.106376 0.000000 0.000000 0.000000 -0.264463 1.287281 -1.666124 0.158394 1.405978 1.679359 0.652261 -2.129816 2.057214 0.000000 0.000000 0.000000 4.188529 0.602557 -1.486652 -0.247241 -0.086487 -0.701272 -0.185262 0.870001 -0.934328 0.000000 0.000000 0.000000 0.066782 -1.660937 6.277794 0.304983 -0.230694 -0.127068 0.147399 1.033823 -0.023271 0.000000 0.000000 0.000000 -2.125295 -0.814705 0.154349 -1.982819 1.063305 -0.619090 -2.138241 -1.663330 -0.729036 0.000000 0.000000 0.000000 
-2581.783447 898.888611 1060.208008 3.779965 1.030745 -1.459428 0.677896 0.256686 1.730345 0.453414 -0.092510 -0.380776 0.523226 0.085136 0.218207 0.000523 0.803669 -0.107443 0.000000 0.000000 0.000000 -0.266695 1.294555 -1.666131 0.158386 1.413164 1.684834 0.655669 -2.142234 2.067759 0.000000 0.000000 0.000000 4.190920 0.607085 -1.492250 -0.247319 -0.082668 -0.702508 -0.187590 0.863960 -0.941417 0.000000 0.000000 0.000000 0.069862 -1.659198 6.280189 0.307526 -0.222013 -0.128871 0.149851 1.041700 -0.022871 0.000000 0.000000 0.000000 -2.122259 -0.810492 0.156253 -1.979369 1.072417 -0.621644 -2.135273 -1.660516 -0.728089 0.000000 0.000000 0.000000 
-2581.915771 898.842468 1060.207031 3.770792 1.014747 -1.457164 0.681029 0.261749 1.737118 0.455789 -0.096288 -0.380660 0.525556 0.087221 0.218136 0.000783 0.811372 -0.109751 0.000000 0.000000 0.000000 -0.272473 1.302719 -1.665881 0.157900 1.420542 1.688371 0.659313 -2.152992 2.080042 0.000000 0.000000 0.000000 4.191796 0.611323 -1.498020 -0.247719 -0.078826 -0.705997 -0.188752 0.860284 -0.944776 0.000000 0.000000 0.000000 0.071602 -1.652590 6.279823 0.309696 -0.219885 -0.128220 0.151350 1.050132 -0.022934 0.000000 0.000000 0.000000 -2.119312 -0.803624 0.156041 -1.976480 1.078220 -0.623167 -2.132537 -1.656150 -0.727426 0.000000 0.000000 0.000000 
-2582.042725 898.799561 1060.206055 3.762218 0.999248 -1.454251 0.683351 0.264878 1.745052 0.457090 -0.098566 -0.382215 0.527093 0.090111 0.218733 0.001576 0.818428 -0.114597 0.000000 0.000000 0.000000 -0.276922 1.311076 -1.665964 0.156945 1.428374 1.690333 0.663212 -2.164374 2.093243 0.000000 0.000000 0.000000 4.194016 0.615215 -1.504576 -0.248318 -0.075534 -0.710446 -0.189298 0.858161 -0.946242 0.000000 0.000000 0.000000 0.073009 -1.644779 6.278047 0.311826 -0.220520 -0.126530 0.152560 1.058801 -0.023142 0.000000 0.000000 0.000000 -2.116415 -0.796490 0.154654 -1.973783 1.082673 -0.624111 -2.129821 -1.650606 -0.726909 0.000000 0.000000 0.000000 
-2582.163330 898.760925 1060.203979 3.753668 0.984314 -1.451587 0.683881 0.265338 1.755663 0.456325 -0.099222 -0.384287 0.526800 0.090840 0.220730 0.002567 0.825637 -0.120414 0.000000 0.000000 0.000000 -0.276535 1.320133 -1.669572 0.155835 1.438008 1.691838 0.666057 -2.172944 2.102767 0.000000 0.000000 0.000000 4.198404 0.620968 -1.515288 -0.248541 -0.071108 -0.712627 -0.189457 0.860763 -0.947492 0.000000 0.000000 0.000000 0.074761 -1.638003 6.277257 0.314110 -0.219109 -0.126588 0.154219 1.065424 -0.022981 0.000000 0.000000 0.000000 -2.113604 -0.789807 0.153441 -1.971084 1.087850 -0.625270 -2.127230 -1.646325 -0.726298 0.000000 0.000000 0.000000 
-2582.273926 898.732666 1060.198975 3.743646 0.970178 -1.449365 0.682068 0.260950 1.772739 0.452371 -0.098906 -0.388832 0.523791 0.089891 0.224189 0.003658 0.830177 -0.126319 0.000000 0.000000 0.000000 -0.268405 1.330063 -1.678103 0.154544 1.450254 1.692992 0.667583 -2.178298 2.107541 0.000000 0.000000 0.000000 4.207497 0.630127 -1.531896 -0.248006 -0.064632 -0.709739 -0.189846 0.870199 -0.951367 0.000000 0.000000 0.000000 0.077268 -1.633464 6.277776 0.316618 -0.213377 -0.129223 0.156740 1.068489 -0.022143 0.000000 0.000000 0.000000 -2.110246 -0.783503 0.152204 -1.967760 1.093734 -0.626781 -2.124172 -1.643603 -0.725300 0.000000 0.000000 0.000000 
-2582.379395 898.709534 1060.192017 3.733165 0.956087 -1.447171 0.678994 0.255052 1.793128 0.446631 -0.097084 -0.395439 0.519504 0.087029 0.229811 0.005114 0.833064 -0.133783 0.000000 0.000000 0.000000 -0.256810 1.340586 -1.690430 0.153095 1.463964 1.693714 0.668285 -2.182120 2.109170 0.000000 0.000000 0.000000 4.217600 0.640840 -1.552526 -0.247110 -0.057114 -0.705054 -0.189717 0.883379 -0.954277 0.000000 0.000000 0.000000 0.080275 -1.629484 6.278771 0.319455 -0.205801 -0.133304 0.159842 1.069873 -0.020908 0.000000 0.000000 0.000000 -2.107008 -0.777200 0.150757 -1.964495 1.100549 -0.628428 -2.121329 -1.642485 -0.724205 0.000000 0.000000 0.000000 
-2582.489258 898.677307 1060.186035 3.724597 0.940978 -1.444977 0.677030 0.255104 1.809885 0.442508 -0.097521 -0.399828 0.516313 0.087234 0.233372 0.006140 0.834567 -0.138956 0.000000 0.000000 0.000000 -0.247327 1.350332 -1.700777 0.151445 1.476337 1.692839 0.668584 -2.185508 2.109141 0.000000 0.000000 0.000000 4.222274 0.647537 -1.570022 -0.247116 -0.052391 -0.705058 -0.187961 0.897566 -0.951384 0.000000 0.000000 0.000000 0.082423 -1.624539 6.279832 0.321479 -0.198033 -0.136287 0.162318 1.070874 -0.019915 0.000000 0.000000 0.000000 -2.104354 -0.770798 0.149955 -1.961724 1.108565 -0.630207 -2.119076 -1.641846 -0.723310 0.000000 0.000000 0.000000 
-2582.610596 898.628296 1060.181030 3.719606 0.922723 -1.442313 0.677773 0.267543 1.819661 0.441860 -0.099142 -0.401915 0.516088 0.089083 0.234996 0.007019 0.834069 -0.143150 0.000000 0.000000 0.000000 -0.247166 1.358593 -1.706474 0.149535 1.485111 1.689234 0.668908 -2.187801 2.109692 0.000000 0.000000 0.000000 4.214815 0.647443 -1.582022 -0.248726 -0.051860 -0.714655 -0.182187 0.914994 -0.934363 0.000000 0.000000 0.000000 0.082976 -1.616416 6.280352 0.322196 -0.190708 -0.137351 0.163676 1.071598 -0.019386 0.000000 0.000000 0.000000 -2.103086 -0.763435 0.149567 -1.960199 1.119544 -0.631980 -2.118261 -1.641914 -0.722955 0.000000 0.000000 0.000000 
-2582.736572 898.570251 1060.177002 3.715675 0.903370 -1.439846 0.680031 0.285732 1.826984 0.442937 -0.102211 -0.403474 0.517382 0.093782 0.235512 0.007748 0.830667 -0.146229 0.000000 0.000000 0.000000 -0.250163 1.365916 -1.710530 0.147515 1.492209 1.684302 0.668884 -2.190011 2.108697 0.000000 0.000000 0.000000 4.201509 0.643189 -1.591292 -0.251202 -0.054259 -0.728645 -0.174743 0.933669 -0.911425 0.000000 0.000000 0.000000 0.082843 -1.607341 6.281155 0.322291 -0.183303 -0.137343 0.164523 1.072452 -0.019091 0.000000 0.000000 0.000000 -2.102112 -0.755855 0.150055 -1.958864 1.131930 -0.634152 -2.117778 -1.642780 -0.722650 0.000000 0.000000 0.000000 
-2582.862549 898.509094 1060.175049 3.712739 0.884894 -1.437513 0.682143 0.302927 1.832555 0.444182 -0.105040 -0.403936 0.518749 0.098193 0.236325 0.008283 0.827229 -0.148349 0.000000 0.000000 0.000000 -0.252704 1.373646 -1.715704 0.145371 1.499856 1.678867 0.668412 -2.191304 2.106032 0.000000 0.000000 0.000000 4.189657 0.638482 -1.597352 -0.253777 -0.057135 -0.742150 -0.170821 0.940932 -0.898653 0.000000 0.000000 0.000000 0.082469 -1.598811 6.282195 0.322219 -0.176901 -0.137032 0.164989 1.074532 -0.019066 0.000000 0.000000 0.000000 -2.101475 -0.748758 0.151259 -1.957915 1.142786 -0.636877 -2.117536 -1.642507 -0.722584 0.000000 0.000000 0.000000 
-2582.985840 898.448486 1060.177002 3.710236 0.868323 -1.436302 0.683134 0.315559 1.840465 0.444016 -0.106234 -0.405660 0.518828 0.099832 0.236761 0.007954 0.825420 -0.146430 0.000000 0.000000 0.000000 -0.250782 1.382888 -1.722261 0.142974 1.509951 1.673233 0.667372 -2.191669 2.101143 0.000000 0.000000 0.000000 4.184497 0.635557 -1.597870 -0.256345 -0.058837 -0.755120 -0.172573 0.929528 -0.902199 0.000000 0.000000 0.000000 0.082093 -1.591878 6.284743 0.322198 -0.171256 -0.137153 0.165251 1.077855 -0.019236 0.000000 0.000000 0.000000 -2.101028 -0.742672 0.154529 -1.957160 1.151646 -0.641220 -2.117364 -1.641155 -0.722673 0.000000 0.000000 0.000000 
-2583.109131 898.383789 1060.181030 3.707981 0.852510 -1.435332 0.684325 0.327997 1.846862 0.444195 -0.108393 -0.407394 0.519447 0.101412 0.238908 0.007535 0.823779 -0.144093 0.000000 0.000000 0.000000 -0.248803 1.392592 -1.730541 0.140442 1.520614 1.667061 0.665917 -2.190881 2.094825 0.000000 0.000000 0.000000 4.180164 0.632509 -1.595906 -0.258912 -0.060646 -0.767480 -0.177746 0.906517 -0.915486 0.000000 0.000000 0.000000 0.081584 -1.585507 6.287890 0.322119 -0.166342 -0.137256 0.165291 1.081953 -0.019568 0.000000 0.000000 0.000000 -2.100776 -0.736924 0.158752 -1.956638 1.159193 -0.646193 -2.117299 -1.638679 -0.722941 0.000000 0.000000 0.000000 
-2583.234131 898.312622 1060.185059 3.705544 0.837198 -1.433810 0.686313 0.341436 1.850664 0.445531 -0.110818 -0.408035 0.520839 0.104065 0.238894 0.006928 0.824298 -0.141146 0.000000 0.000000 0.000000 -0.249990 1.401136 -1.734447 0.137643 1.529182 1.658740 0.664376 -2.189851 2.088201 0.000000 0.000000 0.000000 4.177317 0.627369 -1.593070 -0.261042 -0.065050 -0.774142 -0.185344 0.881663 -0.937329 0.000000 0.000000 0.000000 0.081426 -1.579695 6.290997 0.322433 -0.162094 -0.137898 0.165311 1.088678 -0.020131 0.000000 0.000000 0.000000 -2.100400 -0.730732 0.162519 -1.956205 1.164349 -0.650478 -2.117037 -1.634203 -0.723360 0.000000 0.000000 0.000000 
-2583.364746 898.229065 1060.186035 3.702414 0.821872 -1.431205 0.691073 0.358133 1.848576 0.450367 -0.113611 -0.407052 0.525451 0.107971 0.238180 0.006740 0.826356 -0.140525 0.000000 0.000000 0.000000 -0.261686 1.407975 -1.734095 0.134920 1.533743 1.648820 0.662866 -2.188460 2.081835 0.000000 0.000000 0.000000 4.171814 0.618479 -1.589401 -0.262809 -0.073228 -0.773519 -0.196506 0.854971 -0.971969 0.000000 0.000000 0.000000 0.081325 -1.574167 6.294050 0.322920 -0.158561 -0.139611 0.165143 1.097109 -0.020921 0.000000 0.000000 0.000000 -2.099759 -0.723180 0.165237 -1.955900 1.165776 -0.653101 -2.116516 -1.627897 -0.723883 0.000000 0.000000 0.000000 
